<svg width="1287" height="290" viewBox="0 0 1287 290" fill="none" xmlns="http://www.w3.org/2000/svg">
<mask id="mask0_89_26951" style="mask-type:alpha" maskUnits="userSpaceOnUse" x="0" y="0" width="1287" height="290">
<rect width="1287" height="290" fill="#D9D9D9"/>
</mask>
<g mask="url(#mask0_89_26951)">
<mask id="mask1_89_26951" style="mask-type:alpha" maskUnits="userSpaceOnUse" x="-13" y="-23" width="1306" height="409">
<rect x="-13" y="-23" width="1306" height="409" fill="#D9D9D9"/>
</mask>
<g mask="url(#mask1_89_26951)">
<g opacity="0.4">
<path d="M1277.1 18H1270.1V11H1269V18H1262V19H1269V26H1270.1V19H1277.1V18Z" fill="#E43774"/>
<path d="M1277.1 68H1270.1V61H1269V68H1262V69H1269V76H1270.1V69H1277.1V68Z" fill="#E43774"/>
<path d="M1277.1 118H1270.1V111H1269V118H1262V119H1269V126H1270.1V119H1277.1V118Z" fill="#E43774"/>
<path d="M1277.1 168H1270.1V161H1269V168H1262V169H1269V176H1270.1V169H1277.1V168Z" fill="#E43774"/>
<path d="M1277.1 218H1270.1V211H1269V218H1262V219H1269V226H1270.1V219H1277.1V218Z" fill="#E43774"/>
<path d="M1277.1 268H1270.1V261H1269V268H1262V269H1269V276H1270.1V269H1277.1V268Z" fill="#E43774"/>
<path d="M1227.1 18H1220.1V11H1219V18H1212V19H1219V26H1220.1V19H1227.1V18Z" fill="#E43774"/>
<path d="M1227.1 68H1220.1V61H1219V68H1212V69H1219V76H1220.1V69H1227.1V68Z" fill="#E43774"/>
<path d="M1227.1 118H1220.1V111H1219V118H1212V119H1219V126H1220.1V119H1227.1V118Z" fill="#E43774"/>
<path d="M1227.1 168H1220.1V161H1219V168H1212V169H1219V176H1220.1V169H1227.1V168Z" fill="#E43774"/>
<path d="M1227.1 218H1220.1V211H1219V218H1212V219H1219V226H1220.1V219H1227.1V218Z" fill="#E43774"/>
<path d="M1227.1 268H1220.1V261H1219V268H1212V269H1219V276H1220.1V269H1227.1V268Z" fill="#E43774"/>
<path d="M1177.1 18H1170.1V11H1169V18H1162V19H1169V26H1170.1V19H1177.1V18Z" fill="#E43774"/>
<path d="M1177.1 68H1170.1V61H1169V68H1162V69H1169V76H1170.1V69H1177.1V68Z" fill="#E43774"/>
<path d="M1177.1 118H1170.1V111H1169V118H1162V119H1169V126H1170.1V119H1177.1V118Z" fill="#E43774"/>
<path d="M1177.1 168H1170.1V161H1169V168H1162V169H1169V176H1170.1V169H1177.1V168Z" fill="#E43774"/>
<path d="M1177.1 218H1170.1V211H1169V218H1162V219H1169V226H1170.1V219H1177.1V218Z" fill="#E43774"/>
<path d="M1177.1 268H1170.1V261H1169V268H1162V269H1169V276H1170.1V269H1177.1V268Z" fill="#E43774"/>
<path d="M1127.1 18H1120.1V11H1119V18H1112V19H1119V26H1120.1V19H1127.1V18Z" fill="#E43774"/>
<path d="M1127.1 68H1120.1V61H1119V68H1112V69H1119V76H1120.1V69H1127.1V68Z" fill="#E43774"/>
<path d="M1127.1 118H1120.1V111H1119V118H1112V119H1119V126H1120.1V119H1127.1V118Z" fill="#E43774"/>
<path d="M1127.1 168H1120.1V161H1119V168H1112V169H1119V176H1120.1V169H1127.1V168Z" fill="#E43774"/>
<path d="M1127.1 218H1120.1V211H1119V218H1112V219H1119V226H1120.1V219H1127.1V218Z" fill="#E43774"/>
<path d="M1127.1 268H1120.1V261H1119V268H1112V269H1119V276H1120.1V269H1127.1V268Z" fill="#E43774"/>
<path d="M1077.1 18H1070.1V11H1069V18H1062V19H1069V26H1070.1V19H1077.1V18Z" fill="#E43774"/>
<path d="M1077.1 68H1070.1V61H1069V68H1062V69H1069V76H1070.1V69H1077.1V68Z" fill="#E43774"/>
<path d="M1077.1 118H1070.1V111H1069V118H1062V119H1069V126H1070.1V119H1077.1V118Z" fill="#E43774"/>
<path d="M1077.1 168H1070.1V161H1069V168H1062V169H1069V176H1070.1V169H1077.1V168Z" fill="#E43774"/>
<path d="M1077.1 218H1070.1V211H1069V218H1062V219H1069V226H1070.1V219H1077.1V218Z" fill="#E43774"/>
<path d="M1077.1 268H1070.1V261H1069V268H1062V269H1069V276H1070.1V269H1077.1V268Z" fill="#E43774"/>
<path d="M1027.1 18H1020.1V11H1019V18H1012V19H1019V26H1020.1V19H1027.1V18Z" fill="#E43774"/>
<path d="M1027.1 68H1020.1V61H1019V68H1012V69H1019V76H1020.1V69H1027.1V68Z" fill="#E43774"/>
<path d="M1027.1 118H1020.1V111H1019V118H1012V119H1019V126H1020.1V119H1027.1V118Z" fill="#E43774"/>
<path d="M1027.1 168H1020.1V161H1019V168H1012V169H1019V176H1020.1V169H1027.1V168Z" fill="#E43774"/>
<path d="M1027.1 218H1020.1V211H1019V218H1012V219H1019V226H1020.1V219H1027.1V218Z" fill="#E43774"/>
<path d="M1027.1 268H1020.1V261H1019V268H1012V269H1019V276H1020.1V269H1027.1V268Z" fill="#E43774"/>
<path d="M977.1 18H970.1V11H969V18H962V19H969V26H970.1V19H977.1V18Z" fill="#E43774"/>
<path d="M977.1 68H970.1V61H969V68H962V69H969V76H970.1V69H977.1V68Z" fill="#E43774"/>
<path d="M977.1 118H970.1V111H969V118H962V119H969V126H970.1V119H977.1V118Z" fill="#E43774"/>
<path d="M977.1 168H970.1V161H969V168H962V169H969V176H970.1V169H977.1V168Z" fill="#E43774"/>
<path d="M977.1 218H970.1V211H969V218H962V219H969V226H970.1V219H977.1V218Z" fill="#E43774"/>
<path d="M977.1 268H970.1V261H969V268H962V269H969V276H970.1V269H977.1V268Z" fill="#E43774"/>
<path d="M927.1 18H920.1V11H919V18H912V19H919V26H920.1V19H927.1V18Z" fill="#E43774"/>
<path d="M927.1 68H920.1V61H919V68H912V69H919V76H920.1V69H927.1V68Z" fill="#E43774"/>
<path d="M927.1 118H920.1V111H919V118H912V119H919V126H920.1V119H927.1V118Z" fill="#E43774"/>
<path d="M927.1 168H920.1V161H919V168H912V169H919V176H920.1V169H927.1V168Z" fill="#E43774"/>
<path d="M927.1 218H920.1V211H919V218H912V219H919V226H920.1V219H927.1V218Z" fill="#E43774"/>
<path d="M927.1 268H920.1V261H919V268H912V269H919V276H920.1V269H927.1V268Z" fill="#E43774"/>
<path d="M877.1 18H870.1V11H869V18H862V19H869V26H870.1V19H877.1V18Z" fill="#E43774"/>
<path d="M877.1 68H870.1V61H869V68H862V69H869V76H870.1V69H877.1V68Z" fill="#E43774"/>
<path d="M877.1 118H870.1V111H869V118H862V119H869V126H870.1V119H877.1V118Z" fill="#E43774"/>
<path d="M877.1 168H870.1V161H869V168H862V169H869V176H870.1V169H877.1V168Z" fill="#E43774"/>
<path d="M877.1 218H870.1V211H869V218H862V219H869V226H870.1V219H877.1V218Z" fill="#E43774"/>
<path d="M877.1 268H870.1V261H869V268H862V269H869V276H870.1V269H877.1V268Z" fill="#E43774"/>
<path d="M827.1 18H820.1V11H819V18H812V19H819V26H820.1V19H827.1V18Z" fill="#E43774"/>
<path d="M827.1 68H820.1V61H819V68H812V69H819V76H820.1V69H827.1V68Z" fill="#E43774"/>
<path d="M827.1 118H820.1V111H819V118H812V119H819V126H820.1V119H827.1V118Z" fill="#E43774"/>
<path d="M827.1 168H820.1V161H819V168H812V169H819V176H820.1V169H827.1V168Z" fill="#E43774"/>
<path d="M827.1 218H820.1V211H819V218H812V219H819V226H820.1V219H827.1V218Z" fill="#E43774"/>
<path d="M827.1 268H820.1V261H819V268H812V269H819V276H820.1V269H827.1V268Z" fill="#E43774"/>
<path d="M777.1 18H770.1V11H769V18H762V19H769V26H770.1V19H777.1V18Z" fill="#E43774"/>
<path d="M777.1 68H770.1V61H769V68H762V69H769V76H770.1V69H777.1V68Z" fill="#E43774"/>
<path d="M777.1 118H770.1V111H769V118H762V119H769V126H770.1V119H777.1V118Z" fill="#E43774"/>
<path d="M777.1 168H770.1V161H769V168H762V169H769V176H770.1V169H777.1V168Z" fill="#E43774"/>
<path d="M777.1 218H770.1V211H769V218H762V219H769V226H770.1V219H777.1V218Z" fill="#E43774"/>
<path d="M777.1 268H770.1V261H769V268H762V269H769V276H770.1V269H777.1V268Z" fill="#E43774"/>
<path d="M727.1 18H720.1V11H719V18H712V19H719V26H720.1V19H727.1V18Z" fill="#E43774"/>
<path d="M727.1 68H720.1V61H719V68H712V69H719V76H720.1V69H727.1V68Z" fill="#E43774"/>
<path d="M727.1 118H720.1V111H719V118H712V119H719V126H720.1V119H727.1V118Z" fill="#E43774"/>
<path d="M727.1 168H720.1V161H719V168H712V169H719V176H720.1V169H727.1V168Z" fill="#E43774"/>
<path d="M727.1 218H720.1V211H719V218H712V219H719V226H720.1V219H727.1V218Z" fill="#E43774"/>
<path d="M727.1 268H720.1V261H719V268H712V269H719V276H720.1V269H727.1V268Z" fill="#E43774"/>
<path d="M677.1 18H670.1V11H669V18H662V19H669V26H670.1V19H677.1V18Z" fill="#E43774"/>
<path d="M677.1 68H670.1V61H669V68H662V69H669V76H670.1V69H677.1V68Z" fill="#E43774"/>
<path d="M677.1 118H670.1V111H669V118H662V119H669V126H670.1V119H677.1V118Z" fill="#E43774"/>
<path d="M677.1 168H670.1V161H669V168H662V169H669V176H670.1V169H677.1V168Z" fill="#E43774"/>
<path d="M677.1 218H670.1V211H669V218H662V219H669V226H670.1V219H677.1V218Z" fill="#E43774"/>
<path d="M677.1 268H670.1V261H669V268H662V269H669V276H670.1V269H677.1V268Z" fill="#E43774"/>
<path d="M627.1 18H620.1V11H619V18H612V19H619V26H620.1V19H627.1V18Z" fill="#E43774"/>
<path d="M627.1 68H620.1V61H619V68H612V69H619V76H620.1V69H627.1V68Z" fill="#E43774"/>
<path d="M627.1 118H620.1V111H619V118H612V119H619V126H620.1V119H627.1V118Z" fill="#E43774"/>
<path d="M627.1 168H620.1V161H619V168H612V169H619V176H620.1V169H627.1V168Z" fill="#E43774"/>
<path d="M627.1 218H620.1V211H619V218H612V219H619V226H620.1V219H627.1V218Z" fill="#E43774"/>
<path d="M627.1 268H620.1V261H619V268H612V269H619V276H620.1V269H627.1V268Z" fill="#E43774"/>
<path d="M577.1 18H570.1V11H569V18H562V19H569V26H570.1V19H577.1V18Z" fill="#E43774"/>
<path d="M577.1 68H570.1V61H569V68H562V69H569V76H570.1V69H577.1V68Z" fill="#E43774"/>
<path d="M577.1 118H570.1V111H569V118H562V119H569V126H570.1V119H577.1V118Z" fill="#E43774"/>
<path d="M577.1 168H570.1V161H569V168H562V169H569V176H570.1V169H577.1V168Z" fill="#E43774"/>
<path d="M577.1 218H570.1V211H569V218H562V219H569V226H570.1V219H577.1V218Z" fill="#E43774"/>
<path d="M577.1 268H570.1V261H569V268H562V269H569V276H570.1V269H577.1V268Z" fill="#E43774"/>
<path d="M527.1 18H520.1V11H519V18H512V19H519V26H520.1V19H527.1V18Z" fill="#E43774"/>
<path d="M527.1 68H520.1V61H519V68H512V69H519V76H520.1V69H527.1V68Z" fill="#E43774"/>
<path d="M527.1 118H520.1V111H519V118H512V119H519V126H520.1V119H527.1V118Z" fill="#E43774"/>
<path d="M527.1 168H520.1V161H519V168H512V169H519V176H520.1V169H527.1V168Z" fill="#E43774"/>
<path d="M527.1 218H520.1V211H519V218H512V219H519V226H520.1V219H527.1V218Z" fill="#E43774"/>
<path d="M527.1 268H520.1V261H519V268H512V269H519V276H520.1V269H527.1V268Z" fill="#E43774"/>
<path d="M477.1 18H470.1V11H469V18H462V19H469V26H470.1V19H477.1V18Z" fill="#E43774"/>
<path d="M477.1 68H470.1V61H469V68H462V69H469V76H470.1V69H477.1V68Z" fill="#E43774"/>
<path d="M477.1 118H470.1V111H469V118H462V119H469V126H470.1V119H477.1V118Z" fill="#E43774"/>
<path d="M477.1 168H470.1V161H469V168H462V169H469V176H470.1V169H477.1V168Z" fill="#E43774"/>
<path d="M477.1 218H470.1V211H469V218H462V219H469V226H470.1V219H477.1V218Z" fill="#E43774"/>
<path d="M477.1 268H470.1V261H469V268H462V269H469V276H470.1V269H477.1V268Z" fill="#E43774"/>
<path d="M427.1 18H420.1V11H419V18H412V19H419V26H420.1V19H427.1V18Z" fill="#E43774"/>
<path d="M427.1 68H420.1V61H419V68H412V69H419V76H420.1V69H427.1V68Z" fill="#E43774"/>
<path d="M427.1 118H420.1V111H419V118H412V119H419V126H420.1V119H427.1V118Z" fill="#E43774"/>
<path d="M427.1 168H420.1V161H419V168H412V169H419V176H420.1V169H427.1V168Z" fill="#E43774"/>
<path d="M427.1 218H420.1V211H419V218H412V219H419V226H420.1V219H427.1V218Z" fill="#E43774"/>
<path d="M427.1 268H420.1V261H419V268H412V269H419V276H420.1V269H427.1V268Z" fill="#E43774"/>
<path d="M377.1 18H370.1V11H369V18H362V19H369V26H370.1V19H377.1V18Z" fill="#E43774"/>
<path d="M377.1 68H370.1V61H369V68H362V69H369V76H370.1V69H377.1V68Z" fill="#E43774"/>
<path d="M377.1 118H370.1V111H369V118H362V119H369V126H370.1V119H377.1V118Z" fill="#E43774"/>
<path d="M377.1 168H370.1V161H369V168H362V169H369V176H370.1V169H377.1V168Z" fill="#E43774"/>
<path d="M377.1 218H370.1V211H369V218H362V219H369V226H370.1V219H377.1V218Z" fill="#E43774"/>
<path d="M377.1 268H370.1V261H369V268H362V269H369V276H370.1V269H377.1V268Z" fill="#E43774"/>
<path d="M327.1 18H320.1V11H319V18H312V19H319V26H320.1V19H327.1V18Z" fill="#E43774"/>
<path d="M327.1 68H320.1V61H319V68H312V69H319V76H320.1V69H327.1V68Z" fill="#E43774"/>
<path d="M327.1 118H320.1V111H319V118H312V119H319V126H320.1V119H327.1V118Z" fill="#E43774"/>
<path d="M327.1 168H320.1V161H319V168H312V169H319V176H320.1V169H327.1V168Z" fill="#E43774"/>
<path d="M327.1 218H320.1V211H319V218H312V219H319V226H320.1V219H327.1V218Z" fill="#E43774"/>
<path d="M327.1 268H320.1V261H319V268H312V269H319V276H320.1V269H327.1V268Z" fill="#E43774"/>
<path d="M277.1 18H270.1V11H269V18H262V19H269V26H270.1V19H277.1V18Z" fill="#E43774"/>
<path d="M277.1 68H270.1V61H269V68H262V69H269V76H270.1V69H277.1V68Z" fill="#E43774"/>
<path d="M277.1 118H270.1V111H269V118H262V119H269V126H270.1V119H277.1V118Z" fill="#E43774"/>
<path d="M277.1 168H270.1V161H269V168H262V169H269V176H270.1V169H277.1V168Z" fill="#E43774"/>
<path d="M277.1 218H270.1V211H269V218H262V219H269V226H270.1V219H277.1V218Z" fill="#E43774"/>
<path d="M277.1 268H270.1V261H269V268H262V269H269V276H270.1V269H277.1V268Z" fill="#E43774"/>
<path d="M227.1 18H220.1V11H219V18H212V19H219V26H220.1V19H227.1V18Z" fill="#E43774"/>
<path d="M227.1 68H220.1V61H219V68H212V69H219V76H220.1V69H227.1V68Z" fill="#E43774"/>
<path d="M227.1 118H220.1V111H219V118H212V119H219V126H220.1V119H227.1V118Z" fill="#E43774"/>
<path d="M227.1 168H220.1V161H219V168H212V169H219V176H220.1V169H227.1V168Z" fill="#E43774"/>
<path d="M227.1 218H220.1V211H219V218H212V219H219V226H220.1V219H227.1V218Z" fill="#E43774"/>
<path d="M227.1 268H220.1V261H219V268H212V269H219V276H220.1V269H227.1V268Z" fill="#E43774"/>
<path d="M177.1 18H170.1V11H169V18H162V19H169V26H170.1V19H177.1V18Z" fill="#E43774"/>
<path d="M177.1 68H170.1V61H169V68H162V69H169V76H170.1V69H177.1V68Z" fill="#E43774"/>
<path d="M177.1 118H170.1V111H169V118H162V119H169V126H170.1V119H177.1V118Z" fill="#E43774"/>
<path d="M177.1 168H170.1V161H169V168H162V169H169V176H170.1V169H177.1V168Z" fill="#E43774"/>
<path d="M177.1 218H170.1V211H169V218H162V219H169V226H170.1V219H177.1V218Z" fill="#E43774"/>
<path d="M177.1 268H170.1V261H169V268H162V269H169V276H170.1V269H177.1V268Z" fill="#E43774"/>
<path d="M127.1 18H120.1V11H119V18H112V19H119V26H120.1V19H127.1V18Z" fill="#E43774"/>
<path d="M127.1 68H120.1V61H119V68H112V69H119V76H120.1V69H127.1V68Z" fill="#E43774"/>
<path d="M127.1 118H120.1V111H119V118H112V119H119V126H120.1V119H127.1V118Z" fill="#E43774"/>
<path d="M127.1 168H120.1V161H119V168H112V169H119V176H120.1V169H127.1V168Z" fill="#E43774"/>
<path d="M127.1 218H120.1V211H119V218H112V219H119V226H120.1V219H127.1V218Z" fill="#E43774"/>
<path d="M127.1 268H120.1V261H119V268H112V269H119V276H120.1V269H127.1V268Z" fill="#E43774"/>
<path d="M77.1001 18H70.1001V11H69V18H62V19H69V26H70.1001V19H77.1001V18Z" fill="#E43774"/>
<path d="M77.1001 68H70.1001V61H69V68H62V69H69V76H70.1001V69H77.1001V68Z" fill="#E43774"/>
<path d="M77.1001 118H70.1001V111H69V118H62V119H69V126H70.1001V119H77.1001V118Z" fill="#E43774"/>
<path d="M77.1001 168H70.1001V161H69V168H62V169H69V176H70.1001V169H77.1001V168Z" fill="#E43774"/>
<path d="M77.1001 218H70.1001V211H69V218H62V219H69V226H70.1001V219H77.1001V218Z" fill="#E43774"/>
<path d="M77.1001 268H70.1001V261H69V268H62V269H69V276H70.1001V269H77.1001V268Z" fill="#E43774"/>
<path d="M27.1001 18H20.1001V11H19V18H12V19H19V26H20.1001V19H27.1001V18Z" fill="#E43774"/>
<path d="M27.1001 68H20.1001V61H19V68H12V69H19V76H20.1001V69H27.1001V68Z" fill="#E43774"/>
<path d="M27.1001 118H20.1001V111H19V118H12V119H19V126H20.1001V119H27.1001V118Z" fill="#E43774"/>
<path d="M27.1001 168H20.1001V161H19V168H12V169H19V176H20.1001V169H27.1001V168Z" fill="#E43774"/>
<path d="M27.1001 218H20.1001V211H19V218H12V219H19V226H20.1001V219H27.1001V218Z" fill="#E43774"/>
<path d="M27.1001 268H20.1001V261H19V268H12V269H19V276H20.1001V269H27.1001V268Z" fill="#E43774"/>
</g>
</g>
</g>
</svg>
